<mxfile host="app.diagrams.net" modified="2023-08-29T12:29:34.001Z" agent="Mozilla/5.0 (Windows NT 10.0; Win64; x64) AppleWebKit/537.36 (KHTML, like Gecko) Chrome/116.0.0.0 Safari/537.36 Edg/116.0.1938.62" version="21.6.8" etag="uNUCqFeYkQXpPUtMt4Zh" type="github">
  <diagram name="Page-1" id="sPP5TQ0D2rWdGamkgMEH">
    <mxGraphModel>
      <root>
        <mxCell id="0" />
        <mxCell id="1" parent="0" />
      </root>
    </mxGraphModel>
  </diagram>
</mxfile>
